<svg width="68" height="67" viewBox="0 0 68 67" fill="none" xmlns="http://www.w3.org/2000/svg">
<path fill-rule="evenodd" clip-rule="evenodd" d="M33.9998 0.333374C15.6197 0.333374 0.666504 15.2866 0.666504 33.6667C0.666504 52.0468 15.6197 67 33.9998 67C52.3799 67 67.3332 52.0468 67.3332 33.6667C67.3332 15.2866 52.3799 0.333374 33.9998 0.333374ZM33.9998 4.94933C45.0044 4.95419 55.0409 11.2399 59.8492 21.1384H36.309V10.5722C34.7755 10.3949 33.2266 10.3949 31.6931 10.5722V21.1384H8.16281C12.9692 11.2439 22.9997 4.9589 33.9998 4.94933V4.94933ZM5.28246 33.6667C5.2806 30.9905 5.6535 28.3272 6.39029 25.7543H31.6808C31.5774 33.7873 30.4499 46.5003 18.2416 57.6623C10.1573 52.3559 5.28651 43.337 5.28246 33.6667V33.6667ZM22.5153 59.9813C28.7044 53.9449 32.119 47.5047 33.9998 41.5446C35.8807 47.5047 39.2953 53.9449 45.4942 59.9813C38.1661 63.185 29.8336 63.185 22.5055 59.9813H22.5153ZM49.7679 57.6623C37.567 46.5003 36.4346 33.7824 36.3287 25.7543H61.6192C65.0735 37.8405 60.2668 50.7686 49.7556 57.6623H49.7679Z" fill="#424347"/>
</svg>
